<svg xmlns="http://www.w3.org/2000/svg">
  <defs>
    <symbol id="logo" viewBox="0 0 40 35">
      <path
        d="M37.0025 2.19091C33.2628 2.40351 25.8298 3.17734 21.2412 5.99101C20.9245 6.18515 20.745 6.53037 20.745 6.89131V31.7652C20.745 32.5548 21.6069 33.0538 22.3337 32.6874C27.0547 30.3071 33.8824 29.6577 37.2584 29.48C38.411 29.4191 39.307 28.4936 39.307 27.3841V4.28955C39.3077 3.0789 38.2595 2.11982 37.0025 2.19091ZM18.0658 5.99101C13.4779 3.17734 6.04492 2.4042 2.30523 2.19091C1.04821 2.11982 0 3.0789 0 4.28955V27.3848C0 28.4949 0.896024 29.4205 2.04864 29.4807C5.42596 29.6584 12.257 30.3085 16.9781 32.6901C17.7028 33.0559 18.562 32.5575 18.562 31.77V6.879C18.562 6.51738 18.3832 6.18584 18.0658 5.99101Z"
        fill="#28A745" />
    </symbol>
    <symbol id="facebook" viewBox="0 0 35 35">
      <path
        d="M34.453 17.875C34.453 8.51 26.865.922 17.5.922 8.135.922.547 8.51.547 17.875c0 8.477 6.152 15.518 14.287 16.748V22.797h-4.307v-4.922h4.307v-3.691c0-4.239 2.53-6.631 6.357-6.631 1.915 0 3.829.342 3.829.342v4.17H22.9c-2.119 0-2.802 1.298-2.802 2.665v3.145h4.716l-.752 4.922h-3.964v11.826c8.134-1.23 14.355-8.271 14.355-16.748Z">
      </path>
    </symbol>
    <symbol id="twitter" viewBox="0 0 35 30">
      <path
        d="M31.377 7.766c1.367-1.026 2.598-2.256 3.555-3.692-1.23.547-2.666.957-4.102 1.094 1.504-.889 2.598-2.256 3.145-3.965a15.16 15.16 0 0 1-4.512 1.777A7.178 7.178 0 0 0 24.199.725a7.177 7.177 0 0 0-7.178 7.177c0 .547.069 1.094.206 1.641a20.825 20.825 0 0 1-14.834-7.52c-.616 1.026-.957 2.256-.957 3.623 0 2.461 1.23 4.649 3.212 5.948-1.162-.069-2.324-.342-3.28-.889v.068c0 3.487 2.46 6.358 5.741 7.041-.546.137-1.23.274-1.845.274-.479 0-.889-.069-1.368-.137.89 2.871 3.555 4.922 6.7 4.99-2.461 1.915-5.537 3.077-8.887 3.077-.615 0-1.162-.069-1.709-.137 3.145 2.05 6.904 3.213 11.006 3.213 13.193 0 20.371-10.87 20.371-20.371v-.957Z">
      </path>
    </symbol>
    <symbol id="youtube" viewBox="0 0 38 27">
      <path
        d="M36.842 4.92c-.41-1.64-1.71-2.94-3.282-3.35C30.621.75 19 .75 19 .75s-11.69 0-14.629.82C2.8 1.98 1.5 3.28 1.09 4.92.27 7.79.27 13.943.27 13.943s0 6.084.82 9.024c.41 1.64 1.709 2.87 3.281 3.281C7.311 27 19 27 19 27s11.621 0 14.56-.752c1.573-.41 2.872-1.64 3.282-3.281.82-2.94.82-9.024.82-9.024s0-6.152-.82-9.023Zm-21.67 14.56V8.406l9.707 5.537-9.707 5.537Z">
      </path>
    </symbol>
    <symbol id="linkedin" viewBox="0 0 31 31">
      <path
        d="M7.023 31V10.56H.666V31h6.357ZM3.811 7.826c2.05 0 3.691-1.709 3.691-3.76 0-1.982-1.64-3.623-3.691-3.623C1.828.443.188 2.084.188 4.066c0 2.051 1.64 3.76 3.623 3.76ZM30.744 31h.069V19.79c0-5.47-1.231-9.708-7.657-9.708-3.076 0-5.127 1.709-6.015 3.281h-.069V10.56h-6.084V31h6.358V20.883c0-2.666.478-5.195 3.76-5.195 3.28 0 3.35 3.007 3.35 5.4V31h6.288Z">
      </path>
    </symbol>
    <symbol id="arrow-right" viewBox="0 0 9 18">
      <path
        d="m7.886 9.598-4.782 4.78a.84.84 0 0 1-1.192 0l-.794-.794a.84.84 0 0 1 0-1.191l3.389-3.39-3.389-3.389a.84.84 0 0 1 0-1.191l.791-.802a.84.84 0 0 1 1.192 0l4.781 4.781c.334.33.334.865.004 1.196Z">
      </path>
    </symbol>
    <symbol id="warning" viewBox="0 0 16 15">
      <path d="M13 11.04C13 11.352 12.8929 11.59 12.6788 11.754C12.4647 11.918 12.2019 12 11.8904 12H1.10961C0.798143 12 0.53534 11.916 0.321204 11.748C0.107068 11.58 0 11.344 0 11.04C0 10.8 0.0700809 10.556 0.210243 10.308L5.59479 0.66C5.85175 0.22 6.15544 0 6.50584 0C6.85624 0 7.15214 0.22 7.39353 0.66L12.7898 10.32C12.9299 10.576 13 10.816 13 11.04ZM7.31177 4.908V3.156H5.68823V4.908C5.68823 5.02 5.69602 5.126 5.71159 5.226C5.72716 5.326 5.74858 5.438 5.77583 5.562C5.80308 5.686 5.8245 5.792 5.84007 5.88L6.14376 7.824H6.83288L7.14825 5.88C7.16382 5.8 7.18718 5.696 7.21833 5.568C7.24948 5.44 7.27284 5.326 7.28841 5.226C7.30398 5.126 7.31177 5.02 7.31177 4.908ZM7.31177 9.552C7.31177 9.32 7.23196 9.124 7.07233 8.964C6.9127 8.804 6.71998 8.724 6.49416 8.724C6.27613 8.724 6.0873 8.804 5.92767 8.964C5.76804 9.124 5.68823 9.32 5.68823 9.552C5.68823 9.784 5.76804 9.982 5.92767 10.146C6.0873 10.31 6.27613 10.392 6.49416 10.392C6.71998 10.392 6.9127 10.31 7.07233 10.146C7.23196 9.982 7.31177 9.784 7.31177 9.552Z" fill="#EB5757"/>
    </symbol>
  </defs>
</svg>
